PathFileType	4	(X/Y/Z)	 s01c0401.trc
DataRate	CameraRate	NumFrames	NumMarkers	Units	OrigDataRate	OrigDataStartFrame	OrigNumFrames
200	200	4	48	mm	200	1001	2000
Frame#	Time	racr			lacr			c7			jug			rlel			rdr			llel			ldr			s2			lic			ric			lasi			rasi			rpsi			lpsi			rgt			lgt			rth1			rth2			rth3			rth4			rlfc			rsh1			rsh2			rsh3			rsh4			rlmal			rmmal			rcal			rtoe			rmt5			lth1			lth2			lth4			lth3			llfc			lsh1			lsh2			lsh3			lsh4			llmal			lmmal			lcal			ltoe			lmt5			SBIKE			LBIKE			RBIKE			
		X1	Y1	Z1	X2	Y2	Z2	X3	Y3	Z3	X4	Y4	Z4	X5	Y5	Z5	X6	Y6	Z6	X7	Y7	Z7	X8	Y8	Z8	X9	Y9	Z9	X10	Y10	Z10	X11	Y11	Z11	X12	Y12	Z12	X13	Y13	Z13	X14	Y14	Z14	X15	Y15	Z15	X16	Y16	Z16	X17	Y17	Z17	X18	Y18	Z18	X19	Y19	Z19	X20	Y20	Z20	X21	Y21	Z21	X22	Y22	Z22	X23	Y23	Z23	X24	Y24	Z24	X25	Y25	Z25	X26	Y26	Z26	X27	Y27	Z27	X28	Y28	Z28	X29	Y29	Z29	X30	Y30	Z30	X31	Y31	Z31	X32	Y32	Z32	X33	Y33	Z33	X34	Y34	Z34	X35	Y35	Z35	X36	Y36	Z36	X37	Y37	Z37	X38	Y38	Z38	X39	Y39	Z39	X40	Y40	Z40	X41	Y41	Z41	X42	Y42	Z42	X43	Y43	Z43	X44	Y44	Z44	X45	Y45	Z45	X46	Y46	Z46	X47	Y47	Z47	X48	Y48	Z48	
1001	5.0050	733.211640	1280.969589	-80.167296	749.188737	1224.272138	-458.535988	755.822674	1361.644680	-271.249209	728.554085	1198.356351	-256.020875	570.273442	1071.605463	58.065571	704.612742	889.493169	-27.515266	544.873455	1035.493634	-572.654791	690.559075	892.015777	-446.716828	207.898166	1221.485613	-244.825978	363.850135	1210.829032	-431.016757	372.976287	1201.263084	-99.675087	362.872801	1157.276162	-405.808012	388.502899	1154.869946	-130.784923	245.487343	1257.543470	-195.086403	240.109452	1261.538989	-299.491217	312.105162	1092.863621	-65.115917	292.319364	1078.158596	-443.014749	397.059470	993.395950	-58.306056	453.388164	931.950911	-64.142531	508.737514	861.069014	-76.574148	492.947980	965.232206	-85.964369	533.979827	756.818421	-99.514824	427.978188	705.668077	-63.312824	355.823589	661.522592	-66.279071	275.571744	623.295860	-74.433378	378.621877	621.521767	-104.595136	162.020890	579.190862	-89.333416	192.940680	551.473668	-167.780984	122.916184	603.036106	-144.872524	205.402414	343.695266	-137.038371	140.927656	428.416066	-66.105221	331.476754	951.095156	-450.943707	386.545752	884.288995	-441.067834	429.516760	916.852904	-438.282442	432.964468	814.207713	-423.162041	476.041246	712.895552	-405.940854	410.487443	616.810276	-442.241360	380.444370	534.977941	-437.255566	347.480612	456.789448	-426.734506	432.358511	518.046119	-408.650759	295.522943	341.593537	-414.897221	330.010882	348.063231	-334.454879	241.388914	326.535680	-376.436593	490.216787	203.871559	-369.066261	387.345137	219.827786	-440.479979	-270.106861	877.888627	-267.029645	-11.970074	84.318007	-453.615371	-20.215078	81.104892	-53.761929	
1002	5.0100	732.649161	1281.741029	-77.919513	750.775461	1223.925769	-456.059045	756.255352	1361.813228	-268.730924	729.183641	1198.829202	-253.519930	569.221231	1070.893483	58.144749	704.438451	889.556440	-28.076815	546.218043	1036.719490	-572.336230	690.830145	891.947650	-446.941242	208.272533	1221.138870	-246.311197	364.327024	1209.403389	-431.685689	372.636595	1202.314430	-99.474073	363.789449	1155.887936	-406.394829	388.469459	1155.581693	-131.108386	245.527049	1257.446829	-196.657588	240.887998	1260.695378	-301.123623	312.753766	1094.255212	-65.017439	291.454464	1076.200388	-442.999704	400.177462	996.461810	-57.915037	457.993682	936.358672	-63.760200	514.880887	866.820717	-76.370691	496.495713	970.405829	-86.478334	541.084636	762.488817	-99.595582	435.008614	712.349618	-63.652370	362.328543	668.979610	-66.515862	281.523405	631.764682	-74.649486	384.575342	628.973934	-104.992068	167.236065	588.472009	-89.731160	198.417801	560.878502	-168.358773	127.308157	611.692923	-144.980569	213.388140	353.434576	-137.004115	147.874245	437.467127	-66.183210	327.643721	948.587483	-450.856631	380.823613	880.287799	-440.880567	425.047321	911.827875	-438.034372	425.199670	808.919320	-422.883582	467.320099	706.606381	-405.861065	402.984918	610.157143	-442.440458	373.571114	527.912660	-437.336261	341.222540	449.649435	-426.954550	425.401466	511.680127	-408.314865	289.787546	334.332302	-414.652008	326.163638	342.147996	-334.929513	236.399137	320.312534	-376.302496	483.502576	193.899803	-368.768301	380.814079	211.609238	-440.588912	-270.164565	877.884183	-267.009242	-11.970913	84.319155	-453.615182	-20.229513	81.118839	-53.765027	
1003	5.0150	732.079929	1282.683039	-75.672955	752.430093	1223.601368	-453.464413	756.708073	1361.980493	-266.082296	729.901543	1199.201630	-250.939093	568.213118	1070.210035	58.206275	704.268161	889.734932	-28.726098	547.584475	1038.046168	-572.183183	691.399609	891.584161	-447.206500	208.767484	1220.736697	-247.905744	364.989112	1208.130610	-432.274871	372.056267	1203.313994	-100.251080	364.786627	1154.535864	-406.985858	388.427946	1156.287306	-131.389995	245.520707	1257.394136	-198.247354	241.751732	1259.907078	-302.830878	313.323673	1095.951567	-64.959618	290.669992	1074.546631	-443.073174	403.048200	999.571149	-57.277536	462.311148	940.907915	-63.319827	521.042209	872.720477	-75.727659	499.429447	975.978329	-86.410503	547.934536	768.607026	-99.204098	442.068719	719.046265	-64.001268	369.038288	676.250921	-66.839911	287.830839	639.952005	-74.962301	390.685941	636.208217	-105.591415	172.897827	597.073185	-90.080861	204.443176	569.920418	-169.265945	132.095510	619.782185	-145.392944	221.776203	362.803130	-137.043562	155.270304	445.963785	-66.319668	323.877023	946.330173	-450.950602	375.093903	876.620102	-440.801747	420.450667	906.935837	-438.480270	417.409336	804.170251	-422.778630	458.349141	700.570099	-405.894338	395.084721	603.922476	-442.733130	366.269848	521.366399	-437.523248	334.532584	442.985515	-427.205827	417.950204	505.631326	-408.173175	283.697194	327.417162	-414.379852	322.111858	336.752183	-335.410397	230.954666	314.578965	-376.236099	476.197259	184.374914	-368.597519	373.826758	203.889392	-440.769998	-270.192431	877.867251	-267.083582	-11.973899	84.316307	-453.618432	-20.224455	81.104078	-53.763194	
1004	5.0200	731.597346	1283.553115	-72.977857	754.047771	1223.394633	-450.854296	757.181921	1362.121670	-263.387294	730.606878	1199.466541	-248.418771	567.143257	1069.573173	58.276956	704.072463	889.959784	-29.234935	549.085172	1039.386634	-572.092423	691.473839	891.908377	-447.576006	209.227483	1220.551567	-249.463700	365.881742	1206.937970	-432.739686	371.368269	1204.283743	-100.412414	365.826678	1153.243128	-407.495945	388.373895	1156.994315	-131.654792	245.631622	1257.444899	-199.797470	242.666041	1259.175530	-304.579676	313.875588	1097.695908	-64.963978	289.921138	1072.984991	-443.049454	406.047120	1002.869559	-56.641523	466.146487	945.530518	-62.745641	526.300803	878.635905	-75.116295	502.302061	981.262631	-86.544066	555.107441	775.023557	-99.452654	449.171586	725.649707	-64.304091	375.878786	683.313371	-67.181874	294.309771	647.584162	-75.404507	397.147147	643.292754	-106.117636	179.010206	604.987082	-90.453903	210.769678	578.301518	-170.010176	137.427159	627.245977	-145.794256	230.710487	371.532711	-137.086603	163.161805	454.026687	-66.573100	320.219022	944.352781	-451.192164	369.472951	873.337533	-440.899764	415.438738	902.379301	-438.742376	409.830809	799.653339	-423.123581	449.059156	694.867239	-405.910740	386.835725	598.208450	-443.104055	358.581782	515.306392	-437.770491	327.390898	436.884822	-427.536655	410.187045	500.057427	-408.077472	277.233974	320.979919	-414.176240	317.874675	331.876074	-335.898124	225.091179	309.325044	-376.247877	468.395926	175.310386	-368.643552	366.369593	196.639884	-440.954999	-270.288052	877.859660	-267.087013	-11.984871	84.312429	-453.622351	-20.226113	81.096566	-53.766316	
